<svg width="20" height="20" viewBox="0 0 20 20" fill="none" xmlns="http://www.w3.org/2000/svg">
<path fill-rule="evenodd" clip-rule="evenodd" d="M19.9993 16.1345C19.9993 18.2669 18.2655 20 16.1344 20H3.86486C1.73306 20 0 18.2669 0 16.1345V3.86487C0 1.73306 1.73306 0 3.86486 0H16.1337C18.2655 0 19.9993 1.73306 19.9993 3.86487V16.1345ZM13.5203 9.99893C13.5203 11.9402 11.9388 13.5188 9.99894 13.5188C8.05836 13.5188 6.47828 11.9395 6.48039 9.9982C6.4811 9.23191 6.7297 8.52438 7.14614 7.94645C7.78711 7.05974 8.82609 6.47898 10.0011 6.47898C11.1753 6.47898 12.2151 7.06045 12.8546 7.94716C13.2696 8.52509 13.5203 9.23262 13.5203 9.99893ZM14.3064 5.70416L14.2951 2.31382L17.6854 2.30319V5.69283L14.3064 5.70416ZM9.99965 15.4687C13.016 15.4687 15.4694 13.0139 15.4694 9.99893C15.4694 9.2737 15.3228 8.58033 15.0628 7.94716H18.0495V16.1345C18.0495 17.1925 17.189 18.0496 16.133 18.0496H3.86416C2.80676 18.0496 1.94766 17.1925 1.94766 16.1345V7.94716H4.93289C4.6751 8.58033 4.53061 9.2737 4.53061 9.99893C4.53061 13.0139 6.98325 15.4687 9.99965 15.4687Z" fill="#323232"/>
</svg>
