<svg width="18" height="12" viewBox="0 0 18 12" fill="none" xmlns="http://www.w3.org/2000/svg">
<path d="M0.302163 5.78433C-0.100721 5.38145 -0.100721 4.72824 0.302163 4.32536C0.705047 3.92248 1.35825 3.92248 1.76113 4.32536L7.67464 10.2389C8.07753 10.6418 8.07753 11.295 7.67464 11.6978C7.27176 12.1007 6.61855 12.1007 6.21567 11.6978L0.302163 5.78433Z" fill="#DDD"/>
<path d="M16.1382 0.302162C16.5411 -0.100721 17.1943 -0.100721 17.5972 0.302163C18 0.705047 18 1.35825 17.5972 1.76113L7.66238 11.6959C7.2595 12.0988 6.6063 12.0988 6.20341 11.6959C5.80053 11.293 5.80053 10.6398 6.20341 10.2369L16.1382 0.302162Z" fill="#DDD"/>
</svg>
