<svg width="12" height="9" viewBox="0 0 12 9" fill="none" xmlns="http://www.w3.org/2000/svg">
<path d="M0.202575 4.35622C-0.0675251 4.08763 -0.0675248 3.65216 0.202575 3.38357C0.472675 3.11498 0.910593 3.11498 1.18069 3.38357L5.14521 7.32591C5.4153 7.5945 5.4153 8.02997 5.1452 8.29856C4.8751 8.56715 4.43719 8.56715 4.16709 8.29856L0.202575 4.35622Z" fill="#FF3435"/>
<path d="M10.8193 0.701442C11.0894 0.432852 11.5273 0.432853 11.7974 0.701442C12.0675 0.970031 12.0675 1.4055 11.7974 1.67409L5.13699 8.29728C4.86689 8.56587 4.42897 8.56587 4.15887 8.29728C3.88877 8.02869 3.88877 7.59322 4.15887 7.32463L10.8193 0.701442Z" fill="#FF3435"/>
</svg>
