<svg width="14" height="14" viewBox="0 0 14 14" fill="none" xmlns="http://www.w3.org/2000/svg">
<path d="M0.233563 1.3613C-0.077854 1.04989 -0.0778543 0.544979 0.233562 0.233562C0.544979 -0.0778542 1.04989 -0.0778542 1.3613 0.233562L13.7664 12.6387C14.0779 12.9501 14.0779 13.455 13.7664 13.7664C13.455 14.0779 12.9501 14.0779 12.6387 13.7664L0.233563 1.3613Z" fill="#727272"/>
<path d="M12.6387 0.233563C12.9501 -0.077854 13.455 -0.0778543 13.7664 0.233562C14.0779 0.544979 14.0779 1.04989 13.7664 1.3613L1.3613 13.7664C1.04989 14.0779 0.544979 14.0779 0.233562 13.7664C-0.0778542 13.455 -0.0778542 12.9501 0.233562 12.6387L12.6387 0.233563Z" fill="#727272"/>
</svg>
