<svg width="20" height="12" viewBox="0 0 20 12" fill="none" xmlns="http://www.w3.org/2000/svg">
<path d="M4.38652 1.186C4.94486 2.56485 5.65249 3.86487 6.58449 5.03192C6.7081 5.18723 6.86392 5.32531 7.02807 5.43772C7.26783 5.60239 7.49404 5.54452 7.59153 5.27025C7.69464 4.98244 7.78927 4.39914 7.79489 4.09691C7.81028 3.30718 7.79259 2.78963 7.75016 2.00088C7.72266 1.49569 7.54306 1.05211 6.79997 0.918225C6.57048 0.876714 6.54917 0.687821 6.6966 0.499387C7.00353 0.107081 7.43111 0.0445586 7.89478 0.0198162C8.64627 -0.0207742 9.40056 0.0123525 10.1529 0.0198162C10.4594 0.0226279 10.7677 0.0473203 11.0695 0.113113C11.4632 0.198946 11.674 0.475104 11.7389 0.859436C11.7725 1.05768 11.7897 1.26151 11.7851 1.4621C11.7655 2.32411 11.724 3.18567 11.7142 4.04722C11.71 4.38538 11.7347 4.73199 11.807 5.06132C11.9083 5.52029 12.2207 5.63551 12.5403 5.30389C12.9461 4.88269 13.3039 4.40875 13.6397 3.92739C14.2498 3.05183 14.7055 2.09095 15.0979 1.10022C15.3008 0.589003 15.4561 0.477967 16.006 0.476587C17.0397 0.474236 18.0733 0.473315 19.107 0.476587C19.2904 0.477507 19.4821 0.494786 19.6551 0.549844C19.9359 0.639409 20.0474 0.868433 19.9816 1.15906C19.8282 1.8401 19.4602 2.41895 19.066 2.97546C18.4335 3.86824 17.7706 4.73961 17.1233 5.62212C17.0407 5.73453 16.9679 5.85441 16.9002 5.97614C16.6582 6.41368 16.675 6.65902 17.0281 7.02331C17.5901 7.60313 18.1919 8.14557 18.7362 8.74124C19.1318 9.17461 19.4979 9.64476 19.8114 10.1397C20.2079 10.7657 19.963 11.3552 19.2222 11.4602C18.7563 11.526 16.4801 11.4607 16.3624 11.4602C15.7505 11.4574 15.214 11.2452 14.7821 10.8295C14.3016 10.3669 13.865 9.85934 13.4037 9.37653C13.2647 9.23099 13.1163 9.09153 12.9564 8.96976C12.5789 8.68195 12.2086 8.74584 12.0323 9.18902C11.8816 9.5697 11.7515 10.5692 11.7454 10.6546C11.7137 11.101 11.4297 11.3856 10.9295 11.4131C9.48588 11.4914 8.08694 11.3305 6.78371 10.6322C5.67913 10.0408 4.79707 9.2044 4.03302 8.22906C2.81929 6.67988 1.86061 4.97697 0.985359 3.22406C0.940622 3.13444 0.0541254 1.24806 0.0303048 1.15896C-0.048883 0.860611 0.0249884 0.575609 0.277071 0.477507C0.434211 0.416366 3.35704 0.477303 3.40565 0.47991C3.87204 0.505163 4.19006 0.70193 4.38652 1.186Z" fill="#323232"/>
</svg>
