<svg width="18" height="16" viewBox="0 0 18 16" fill="none" xmlns="http://www.w3.org/2000/svg">
<path d="M0.75 0.25C0.336914 0.25 0 0.586914 0 1C0 1.41309 0.336914 1.75 0.75 1.75H2.41406L4.38281 9.625C4.5498 10.293 5.14746 10.75 5.83594 10.75H14.4375C15.1143 10.75 15.6885 10.3018 15.8672 9.64844L17.8125 2.5H5.25L5.625 4H15.8672L14.4375 9.25H5.83594L3.86719 1.375C3.7002 0.707031 3.10254 0.25 2.41406 0.25H0.75ZM13.5 10.75C12.2666 10.75 11.25 11.7666 11.25 13C11.25 14.2334 12.2666 15.25 13.5 15.25C14.7334 15.25 15.75 14.2334 15.75 13C15.75 11.7666 14.7334 10.75 13.5 10.75ZM6.75 10.75C5.5166 10.75 4.5 11.7666 4.5 13C4.5 14.2334 5.5166 15.25 6.75 15.25C7.9834 15.25 9 14.2334 9 13C9 11.7666 7.9834 10.75 6.75 10.75ZM6.75 12.25C7.17188 12.25 7.5 12.5781 7.5 13C7.5 13.4219 7.17188 13.75 6.75 13.75C6.32812 13.75 6 13.4219 6 13C6 12.5781 6.32812 12.25 6.75 12.25ZM13.5 12.25C13.9219 12.25 14.25 12.5781 14.25 13C14.25 13.4219 13.9219 13.75 13.5 13.75C13.0781 13.75 12.75 13.4219 12.75 13C12.75 12.5781 13.0781 12.25 13.5 12.25Z" fill="#AB3226"/>
</svg>
