<svg width="27" height="16" viewBox="0 0 27 16" fill="none" xmlns="http://www.w3.org/2000/svg">
<path fill-rule="evenodd" clip-rule="evenodd" d="M15.7083 3.29438C15.5759 3.71591 15.1269 3.9503 14.7053 3.8179C14.2825 3.68509 13.8317 3.61319 13.3626 3.61319C10.8913 3.61319 8.88791 5.61659 8.88791 8.08791C8.88791 10.5592 10.8913 12.5626 13.3626 12.5626C15.834 12.5626 17.8374 10.5592 17.8374 8.08791C17.8374 7.6734 17.7812 7.27329 17.6766 6.89416C17.559 6.46826 17.809 6.0277 18.2349 5.91015C18.6608 5.7926 19.1014 6.04257 19.2189 6.46848C19.3615 6.98495 19.4374 7.52821 19.4374 8.08791C19.4374 11.4429 16.7176 14.1626 13.3626 14.1626C10.0077 14.1626 7.28791 11.4429 7.28791 8.08791C7.28791 4.73293 10.0077 2.01319 13.3626 2.01319C13.9962 2.01319 14.6086 2.11045 15.1848 2.29143C15.6063 2.42382 15.8407 2.87286 15.7083 3.29438ZM0 8.08791C2.05128 10.7253 7.7011 16 13.8901 16C20.0791 16 25.1429 10.7253 26.9011 8.08791C25.3773 5.39194 20.6418 0 13.8901 0C7.13846 0 1.81685 5.39194 0 8.08791ZM24.9696 8.02452C24.1984 6.91369 22.9805 5.5165 21.3883 4.30709C19.3644 2.76983 16.824 1.6 13.8901 1.6C10.9446 1.6 8.24281 2.77853 6.01349 4.34272C4.31186 5.53667 2.9494 6.91157 2.04117 8.02683C3.05088 9.14209 4.52508 10.5167 6.28844 11.7067C8.59083 13.2605 11.2373 14.4 13.8901 14.4C16.529 14.4 19.0164 13.2709 21.1141 11.7404C22.7669 10.5346 24.0972 9.13717 24.9696 8.02452Z" fill="#323232"/>
</svg>
