<svg width="20" height="17" viewBox="0 0 20 17" fill="none" xmlns="http://www.w3.org/2000/svg">
<path d="M20 1.92417C19.2643 2.25037 18.473 2.471 17.6431 2.56953C18.4905 2.06187 19.1407 1.25861 19.4476 0.299887C18.6547 0.770219 17.7762 1.11141 16.842 1.29532C16.0935 0.49818 15.027 0 13.8462 0C11.5806 0 9.74295 1.83757 9.74295 4.10324C9.74295 4.42486 9.77936 4.7379 9.84974 5.0384C6.4396 4.86734 3.41595 3.23388 1.39203 0.750639C1.03889 1.35653 0.836316 2.06187 0.836316 2.81373C0.836316 4.23697 1.56125 5.49343 2.66164 6.22907C1.98935 6.20795 1.35622 6.02343 0.803264 5.71529C0.802959 5.73273 0.802959 5.75017 0.802959 5.76731C0.802959 7.75543 2.21794 9.41368 4.09468 9.79037C3.75072 9.88458 3.38749 9.93447 3.01386 9.93447C2.74886 9.93447 2.49212 9.90912 2.2418 9.86136C2.76385 11.4911 4.27889 12.6775 6.07484 12.7109C4.67027 13.8116 2.90125 14.4674 0.978306 14.4674C0.647815 14.4674 0.320388 14.4481 0 14.4098C1.81493 15.5745 3.97228 16.2535 6.28935 16.2535C13.8367 16.2535 17.9641 10.0013 17.9641 4.57847C17.9641 4.40068 17.9601 4.22351 17.9522 4.04785C18.7545 3.46951 19.4501 2.74702 20 1.92417Z" fill="#323232"/>
</svg>
