<svg width="159" height="56" viewBox="0 0 159 56" fill="none" xmlns="http://www.w3.org/2000/svg">
<mask id="mask0" mask-type="alpha" maskUnits="userSpaceOnUse" x="0" y="0" width="56" height="56">
<path d="M0 0.221436H55.7787V55.9675H0V0.221436Z" fill="white"/>
</mask>
<g mask="url(#mask0)">
<path fill-rule="evenodd" clip-rule="evenodd" d="M27.888 35.5107C23.8076 35.5107 20.4971 32.1898 20.4971 28.1094C20.4971 24.0345 23.8076 20.7185 27.888 20.7185C31.9684 20.7185 35.2789 24.0345 35.2789 28.1094C35.2789 32.1898 31.9684 35.5107 27.888 35.5107ZM27.888 0.221436C12.4983 0.221436 0 12.7143 0 28.1094C0 43.5149 12.4983 56.0002 27.888 56.0002C43.2907 56.0002 55.7787 43.5149 55.7787 28.1094C55.7787 12.7143 43.2907 0.221436 27.888 0.221436Z" fill="#AB3226"/>
</g>
<path fill-rule="evenodd" clip-rule="evenodd" d="M74.2076 23.5778C73.6955 23.2461 73.292 23.1026 72.8245 22.9194C72.1052 22.6644 71.5609 22.5263 70.7644 22.5263C69.2698 22.5263 68.2265 23.1026 67.5311 23.8964C66.3393 25.2768 66.3045 27.0128 66.3045 28.683V30.2385C66.3045 31.7277 66.3709 33.6844 67.4621 34.9931C68.0781 35.7097 69.023 36.2169 70.2175 36.2169C71.524 36.2169 72.607 35.6384 73.223 34.8071C74.1309 33.6127 74.2076 31.6934 74.2076 30.3554V23.5778ZM77.3936 11.3551V34.4092L77.7519 38.402H75.9469L75.0389 35.9701C74.6034 36.6628 74.0619 37.1994 73.4753 37.5631C72.6391 38.1073 71.4071 38.545 69.8516 38.545C67.6105 38.545 65.9066 37.7088 64.7115 36.1876C62.9652 34.0106 62.7472 31.0747 62.7472 29.3702C62.7472 27.3793 63.0022 24.1514 65.3651 22.0168C66.6656 20.8539 68.4733 20.2036 70.1462 20.2036C70.908 20.2036 71.8822 20.3472 72.6788 20.5674C73.1882 20.7131 73.6955 20.9284 74.2076 21.1431V11.3551H77.3936Z" fill="#1C1B1B"/>
<path fill-rule="evenodd" clip-rule="evenodd" d="M93.1279 27.8173V27.0899C93.1279 25.8579 93.1279 24.4774 91.965 23.389C91.2696 22.736 90.4041 22.5261 89.4673 22.5261C88.1211 22.5261 87.2877 23.1394 86.8206 23.6836C86.2737 24.2627 85.6577 25.3881 85.6577 27.4166V27.8173H93.1279ZM85.6577 30.6048C85.6577 32.7045 86.3106 33.942 86.8842 34.5547C87.7177 35.46 89.2096 36.0042 90.8716 36.0042C91.8883 36.0042 92.65 35.8612 93.6325 35.572C94.429 35.3197 95.0819 35.0223 95.6631 34.7379L96.6798 36.8061C96.1329 37.0878 95.2967 37.5254 94.535 37.8174C93.0855 38.3589 91.7105 38.5449 90.4041 38.5449C87.4682 38.5449 85.4054 37.3476 84.2082 36.0042C82.3923 33.9735 82.1058 31.0746 82.1058 29.0836C82.1058 27.3449 82.2836 24.6237 84.1337 22.5261C85.2619 21.2865 87.0696 20.2035 89.5015 20.2035C91.7448 20.2035 93.5259 21.0767 94.6785 22.3032C96.4276 24.1909 96.526 26.5114 96.526 29.3358V30.1345H85.6577V30.6048Z" fill="#1C1B1B"/>
<path fill-rule="evenodd" clip-rule="evenodd" d="M110.665 23.9305C110.198 23.5776 109.617 23.2112 108.886 22.9589C108.133 22.7017 107.299 22.5261 106.317 22.5261C105.698 22.5261 105.013 22.5925 104.39 23.028C104.029 23.2829 103.418 23.8962 103.418 25.1255C103.418 25.6007 103.524 26.2564 104.074 26.7979C104.724 27.4509 105.59 27.5944 106.534 27.7749L107.798 28.0245C109.067 28.2871 110.41 28.5736 111.462 29.6621C112.37 30.6048 112.619 31.6933 112.619 32.9622C112.619 34.515 112.12 35.6834 111.063 36.6947C110.158 37.5629 108.525 38.5449 105.77 38.5449C103.094 38.5449 101.098 37.7804 99.3137 36.3309L100.731 34.4433C101.316 34.8467 102.038 35.2849 102.585 35.5344C103.564 35.9699 104.581 36.2168 105.77 36.2168C106.718 36.2168 107.724 36.1135 108.525 35.3567C108.996 34.9184 109.362 34.26 109.362 33.3575C109.362 32.6725 109.21 32.0597 108.594 31.5443C107.976 31.0349 107.183 30.8968 106.461 30.7478L104.868 30.4216C103.484 30.1345 101.788 29.6621 100.886 28.1756C100.41 27.4166 100.153 26.2564 100.153 25.4251C100.153 23.6836 100.959 22.1548 102.146 21.2865C103.524 20.2753 105.345 20.2035 106.285 20.2035C107.581 20.2035 108.637 20.384 109.683 20.7847C110.516 21.0767 111.165 21.4355 111.897 22.0167L110.665 23.9305Z" fill="#1C1B1B"/>
<path fill-rule="evenodd" clip-rule="evenodd" d="M120.192 20.5675V38.1841H117.007V23.1027H114.976V20.5675H120.192Z" fill="#1C1B1B"/>
<path fill-rule="evenodd" clip-rule="evenodd" d="M118.529 12.5898C119.729 12.5898 120.703 13.5696 120.703 14.7641C120.703 15.964 119.729 16.9383 118.529 16.9383C117.334 16.9383 116.357 15.964 116.357 14.7641C116.357 13.5696 117.334 12.5898 118.529 12.5898Z" fill="#AB3226"/>
<path fill-rule="evenodd" clip-rule="evenodd" d="M135.784 24.2969C135.46 23.8962 135.094 23.5379 134.512 23.2112C133.714 22.736 133.023 22.5261 132.19 22.5261C130.814 22.5261 129.655 22.9964 128.967 23.7875C127.878 25.0989 127.878 27.1241 127.878 28.7171V29.8774C127.878 31.3986 127.95 33.432 128.861 34.738C129.397 35.4948 130.416 36.2168 132.227 36.2168C133.278 36.2168 134.226 35.8215 134.398 35.7498C134.876 35.572 135.386 35.3197 135.784 35.062V24.2969ZM138.965 38.0724C138.965 39.8166 138.965 42.2773 137.3 44.0535C136.251 45.211 134.367 46.0793 131.685 46.0793C130.451 46.0793 129.328 45.9331 128.277 45.6145C127.95 45.503 127.265 45.2883 126.429 44.8821L127.552 42.6041C127.839 42.7422 128.468 42.9971 128.967 43.1804C129.62 43.4006 130.53 43.5441 131.356 43.5441C134.26 43.5441 135.784 42.1658 135.784 39.1554V37.3477C135.163 37.7462 134.656 37.9637 134.037 38.1442C133.135 38.4334 132.264 38.5449 131.261 38.5449C129.514 38.5449 127.918 37.9952 126.615 36.6626C124.621 34.6265 124.321 31.908 124.321 29.3701C124.321 27.3052 124.443 25.0989 125.77 23.1024C127.154 21.0767 129.145 20.2035 131.579 20.2035C132.848 20.2035 133.825 20.4585 134.876 20.8537C135.673 21.143 136.289 21.4697 136.942 22.0167L137.993 20.2035H138.965V38.0724Z" fill="#1C1B1B"/>
<path fill-rule="evenodd" clip-rule="evenodd" d="M144.837 38.1838V23.1024H142.772V20.5672H147.773V22.1282C148.609 21.5067 149.376 21.0767 150.242 20.7423C151.33 20.3122 152.058 20.2035 153.104 20.2035C154.63 20.2035 156.226 20.5275 157.452 21.9052C158.689 23.3226 158.912 25.0217 158.912 26.4369V38.1838H155.713V26.1846C155.713 23.2829 153.866 22.5261 152.344 22.5261C150.858 22.5261 149.307 23.1742 148.033 24.3366V38.1838H144.837Z" fill="#1C1B1B"/>
</svg>
